# File created by Blade
# Date/Time:  Tue Apr 07 21:32:54 2015
#---------------------------------------------------------
:version 1.10
:name HOM
:units
  mass 1.0
  length 1.000000
  angle deg
:documentation
     Acclaim Skeleton File
:root
   axis xyz
   order TX TY TZ RX RY RZ
   position 0.000000 0.000000 0.000000
   orientation 0 0 0
:bonedata
   begin
      id 1
      name Spine_dum
      direction 0.000000 1.000000 0.000000
      length 4.885285
      axis 0.0 0.0 0.0 xyz
   end
   begin
      id 2
      name LeftUpLeg_dum
      direction 1.000000 0.000000 0.000000
      length 2.672193
      axis 0.0 0.0 0.0 xyz
   end
   begin
      id 3
      name RightUpLeg_dum
      direction -1.000000 0.000000 0.000000
      length 2.672193
      axis 0.0 0.0 0.0 xyz
   end
   begin
      id 4
      name Spine
      direction 0.000000 1.000000 0.000000
      length 0.000000
      axis 0.0 0.0 0.0 xyz
      dof rx ry rz
   end
   begin
      id 5
      name Spine_dum1
      direction 0.000000 1.000000 0.000000
      length 16.494159
      axis 0.0 0.0 0.0 xyz
   end
   begin
      id 6
      name Spine_dum2
      direction 0.000000 1.000000 0.000000
      length 10.663448
      axis 0.0 0.0 0.0 xyz
   end
   begin
      id 7
      name Spine_dum3
      direction 0.000000 1.000000 0.000000
      length 10.663448
      axis 0.0 0.0 0.0 xyz
   end
   begin
      id 8
      name Head
      direction 0.000000 1.000000 0.000000
      length 4.527550
      axis 0.0 0.0 0.0 xyz
      dof rx ry rz
   end
   begin
      id 9
      name LeftShoulder
      direction 1.000000 0.000000 0.000000
      length 7.531907
      axis 0.0 0.0 -90.0 xyz
      dof rx ry rz
   end
   begin
      id 10
      name LeftArm
      direction 1.000000 0.000000 0.000000
      length 10.229199
      axis 0.0 0.0 -90.0 xyz
      dof rx ry rz
   end
   begin
      id 11
      name LeftForeArm
      direction 1.000000 0.000000 0.000000
      length 8.673495
      axis 0.0 0.0 -90.0 xyz
      dof ry rz rx
   end
   begin
      id 12
      name LeftHand
      direction 0.000000 0.000000 0.000000
      length 0.000000
      axis 0.0 0.0 -90.0 xyz
      dof rx ry rz
   end
   begin
      id 13
      name LeftHand_dum1
      direction 0.000000 0.000000 0.000000
      length 0.000000
      axis 0.0 0.0 -90.0 xyz
   end
   begin
      id 14
      name LeftHand_dum2
      direction 1.000000 0.000000 0.000000
      length 3.937000
      axis 0.0 0.0 -90.0 xyz
   end
   begin
      id 15
      name LeftHandThumb1
      direction 0.000000 0.000000 1.000000
      length 3.937000
      axis 0.0 0.0 -90.0 xyz
      dof rx rz ry
   end
   begin
      id 16
      name RightShoulder
      direction -1.000000 0.000000 0.000000
      length 7.531907
      axis 0.0 0.0 90.0 xyz
      dof rx ry rz
   end
   begin
      id 17
      name RightArm
      direction -1.000000 0.000000 0.000000
      length 10.229199
      axis 0.0 0.0 90.0 xyz
      dof rx ry rz
   end
   begin
      id 18
      name RightForeArm
      direction -1.000000 0.000000 0.000000
      length 8.673495
      axis 0.0 0.0 90.0 xyz
      dof ry rz rx
   end
   begin
      id 19
      name RightHand
      direction 0.000000 0.000000 0.000000
      length 0.000000
      axis 0.0 0.0 90.0 xyz
      dof rx ry rz
   end
   begin
      id 20
      name RightHand_dum1
      direction 0.000000 0.000000 0.000000
      length 0.000000
      axis 0.0 0.0 90.0 xyz
   end
   begin
      id 21
      name RightHand_dum2
      direction -1.000000 0.000000 0.000000
      length 3.937000
      axis 0.0 0.0 90.0 xyz
   end
   begin
      id 22
      name RightHandThumb1
      direction 0.000000 0.000000 1.000000
      length 3.937000
      axis 0.0 0.0 90.0 xyz
      dof rx rz ry
   end
   begin
      id 23
      name LeftUpLeg
      direction 0.000000 -1.000000 0.000000
      length 16.263388
      axis 0.0 0.0 0.0 xyz
      dof rx ry rz
   end
   begin
      id 24
      name LeftLeg
      direction 0.000000 -1.000000 0.000000
      length 14.328163
      axis 0.0 0.0 0.0 xyz
      dof rx ry rz
   end
   begin
      id 25
      name LeftFoot
      direction 0.000000 -0.258819 0.965926
      length 5.031290
      axis 15.0 0.0 0.0 xyz
      dof rx ry rz
   end
   begin
      id 26
      name LeftToeBase
      direction 0.000000 0.000000 1.000000
      length 2.952750
      axis 0.0 0.0 0.0 xyz
      dof rx ry rz
   end
   begin
      id 27
      name RightUpLeg
      direction 0.000000 -1.000000 0.000000
      length 16.263388
      axis 0.0 0.0 0.0 xyz
      dof rx ry rz
   end
   begin
      id 28
      name RightLeg
      direction 0.000000 -1.000000 0.000000
      length 14.328163
      axis 0.0 0.0 0.0 xyz
      dof rx ry rz
   end
   begin
      id 29
      name RightFoot
      direction 0.000000 -0.258819 0.965926
      length 5.031290
      axis 15.0 0.0 0.0 xyz
      dof rx ry rz
   end
   begin
      id 30
      name RightToeBase
      direction 0.000000 0.000000 1.000000
      length 2.952750
      axis 0.0 0.0 0.0 xyz
      dof rx ry rz
   end
:hierarchy
   begin
      root Spine_dum LeftUpLeg_dum RightUpLeg_dum
      Spine_dum Spine
      LeftUpLeg_dum LeftUpLeg
      RightUpLeg_dum RightUpLeg
      Spine Spine_dum1 Spine_dum2 Spine_dum3
      Spine_dum1 Head
      Spine_dum2 LeftShoulder
      Spine_dum3 RightShoulder
      LeftShoulder LeftArm
      LeftArm LeftForeArm
      LeftForeArm LeftHand
      LeftHand LeftHand_dum1 LeftHand_dum2
      LeftHand_dum1 LeftHandThumb1
      RightShoulder RightArm
      RightArm RightForeArm
      RightForeArm RightHand
      RightHand RightHand_dum1 RightHand_dum2
      RightHand_dum1 RightHandThumb1
      LeftUpLeg LeftLeg
      LeftLeg LeftFoot
      LeftFoot LeftToeBase
      RightUpLeg RightLeg
      RightLeg RightFoot
      RightFoot RightToeBase
   end

# File created by Blade
# Date/Time:  Tue Apr 07 21:33:03 2015
# Frame Rate: 120.000 fps
#------------------------------------------------------
:FULLY-SPECIFIED
:DEGREES
40
root -0.974651 32.924879 -0.001999 9.681518 1.604402 -2.206997
Spine -12.358353 -6.412402 1.574801
Head 12.181444 -3.735736 -0.682246
LeftShoulder -19.985544 40.093701 21.464695
LeftArm 57.835521 -57.536088 -62.321255
LeftForeArm 4.936103 -0.000000 -4.209134
LeftHand 4.434069 -0.000000 5.913979
LeftHandThumb1 -26.253704 0.000000 33.147579
RightShoulder -7.890179 3.020206 -31.759532
RightArm 12.749282 14.659205 40.017889
RightForeArm -10.904238 -0.000000 0.169465
RightHand 2.150186 -0.000000 0.358326
RightHandThumb1 -24.326973 -0.000000 -32.862282
LeftUpLeg -4.798079 -5.199375 3.883489
LeftLeg -3.383316 -0.000000 0.000000
LeftFoot -5.150279 6.944495 -19.454496
LeftToeBase -6.003714 -0.000000 0.000000
RightUpLeg -3.910402 1.823265 2.694469
RightLeg -4.623998 -0.000000 0.000000
RightFoot -4.429269 -11.999555 8.750997
RightToeBase -2.029844 -0.000000 0.000000
41
root -0.976322 32.924448 -0.002823 9.692723 1.600746 -2.210730
Spine -12.369388 -6.414847 1.566576
Head 12.217580 -3.753537 -0.681873
LeftShoulder -20.006027 40.115697 21.445137
LeftArm 57.936500 -57.526130 -62.384297
LeftForeArm 4.926694 -0.000000 -4.217786
LeftHand 4.423215 0.000000 5.949231
LeftHandThumb1 -26.253704 0.000000 33.147579
RightShoulder -7.898556 3.015011 -31.759239
RightArm 12.759499 14.672438 40.019927
RightForeArm -10.931402 0.000000 0.168261
RightHand 2.121831 -0.000000 0.336620
RightHandThumb1 -24.326973 -0.000000 -32.862282
LeftUpLeg -4.811441 -5.185868 3.890466
LeftLeg -3.379678 -0.000000 0.000000
LeftFoot -5.150138 6.931458 -19.454395
LeftToeBase -5.992076 -0.000000 0.000000
RightUpLeg -3.926669 1.838030 2.700156
RightLeg -4.610619 -0.000000 0.000000
RightFoot -4.461989 -12.048756 8.667232
RightToeBase -1.889752 -0.000000 0.000000
42
root -0.977240 32.923932 -0.003704 9.701176 1.597321 -2.215158
Spine -12.374189 -6.414703 1.566506
Head 12.246791 -3.754228 -0.700406
LeftShoulder -20.026072 40.131319 21.405181
LeftArm 57.975688 -57.490614 -62.339518
LeftForeArm 4.830454 0.000000 -4.275612
LeftHand 4.396392 -0.000000 6.057499
LeftHandThumb1 -26.253704 0.000000 33.147579
RightShoulder -7.912917 3.008773 -31.766858
RightArm 12.775846 14.679261 40.014840
RightForeArm -10.928257 -0.000000 0.148157
RightHand 2.231824 -0.000000 0.376613
RightHandThumb1 -24.326973 -0.000000 -32.862282
LeftUpLeg -4.819937 -5.182757 3.896593
LeftLeg -3.383480 -0.000000 0.000000
LeftFoot -5.155821 6.934716 -19.451758
LeftToeBase -5.986041 -0.000000 0.000000
RightUpLeg -3.939470 1.849104 2.704960
RightLeg -4.607737 -0.000000 0.000000
RightFoot -4.471377 -12.040745 8.707281
RightToeBase -1.880686 -0.000000 0.000000
43
root -0.978295 32.923571 -0.004584 9.705767 1.590504 -2.219836
Spine -12.376603 -6.416202 1.565173
Head 12.285061 -3.749777 -0.717475
LeftShoulder -20.018703 40.106473 21.399634
LeftArm 57.961564 -57.486860 -62.320604
LeftForeArm 4.843398 -0.000000 -4.254557
LeftHand 4.345494 -0.000000 6.028851
LeftHandThumb1 -26.253704 0.000000 33.147579
RightShoulder -7.912144 3.028697 -31.770508
RightArm 12.761358 14.649188 40.000852
RightForeArm -10.959279 -0.000000 0.144240
RightHand 2.307202 -0.000000 0.366895
RightHandThumb1 -24.326973 -0.000000 -32.862282
LeftUpLeg -4.824479 -5.186509 3.905593
LeftLeg -3.385467 -0.000000 0.000000
LeftFoot -5.154149 6.935641 -19.444151
LeftToeBase -6.017961 -0.000000 0.000000
RightUpLeg -3.953582 1.844397 2.712284
RightLeg -4.588406 -0.000000 0.000000
RightFoot -4.481898 -12.046412 8.672526
RightToeBase -1.909598 -0.000000 0.000000
44
root -0.979285 32.923234 -0.004891 9.721283 1.585096 -2.232428
Spine -12.397559 -6.409004 1.572823
Head 12.340507 -3.767671 -0.740170
LeftShoulder -20.015104 40.106996 21.389747
LeftArm 58.027262 -57.492298 -62.370380
LeftForeArm 4.902506 -0.000000 -4.254045
LeftHand 4.308288 -0.000000 6.073638
LeftHandThumb1 -26.253704 0.000000 33.147579
RightShoulder -7.926107 3.024157 -31.776502
RightArm 12.773310 14.667495 39.998571
RightForeArm -11.009619 0.000000 0.132513
RightHand 2.341596 0.000000 0.332875
RightHandThumb1 -24.326973 -0.000000 -32.862282
LeftUpLeg -4.833272 -5.200824 3.922570
LeftLeg -3.396206 -0.000000 0.000000
LeftFoot -5.169776 6.960346 -19.445511
LeftToeBase -6.019796 -0.000000 0.000000
RightUpLeg -3.970958 1.859309 2.723792
RightLeg -4.588387 -0.000000 0.000000
RightFoot -4.480685 -12.053572 8.664398
RightToeBase -1.886639 -0.000000 0.000000
45
root -0.980353 32.923216 -0.005797 9.737018 1.574501 -2.245068
Spine -12.413416 -6.407402 1.581931
Head 12.387034 -3.811397 -0.751568
LeftShoulder -20.040950 40.116338 21.361514
LeftArm 58.117525 -57.494091 -62.438625
LeftForeArm 4.945024 -0.000000 -4.258882
LeftHand 4.355042 -0.000000 6.096461
LeftHandThumb1 -26.253704 0.000000 33.147579
RightShoulder -7.924409 3.029038 -31.783019
RightArm 12.767321 14.667809 39.982007
RightForeArm -10.931658 0.000000 0.135349
RightHand 2.326455 -0.000000 0.371916
RightHandThumb1 -24.326973 -0.000000 -32.862282
LeftUpLeg -4.846266 -5.204595 3.940036
LeftLeg -3.405365 -0.000000 0.000000
LeftFoot -5.160162 6.965828 -19.458711
LeftToeBase -6.018997 -0.000000 0.000000
RightUpLeg -3.994813 1.856690 2.736658
RightLeg -4.579883 -0.000000 0.000000
RightFoot -4.471028 -12.006703 8.734576
RightToeBase -1.960992 -0.000000 0.000000
46
root -0.980902 32.923083 -0.006134 9.748976 1.567355 -2.258411
Spine -12.429375 -6.399481 1.596095
Head 12.441025 -3.813803 -0.781804
LeftShoulder -20.019636 40.126071 21.360758
LeftArm 58.098974 -57.490944 -62.437230
LeftForeArm 4.946272 -0.000000 -4.216322
LeftHand 4.346282 -0.000000 6.108036
LeftHandThumb1 -26.253704 0.000000 33.147579
RightShoulder -7.932696 3.002849 -31.788235
RightArm 12.781986 14.670072 39.965506
RightForeArm -10.962505 0.000000 0.132051
RightHand 2.350454 -0.000000 0.293611
RightHandThumb1 -24.326973 -0.000000 -32.862282
LeftUpLeg -4.860167 -5.192147 3.953822
LeftLeg -3.398474 -0.000000 0.000000
LeftFoot -5.165301 6.955813 -19.435069
LeftToeBase -6.056479 -0.000000 0.000000
RightUpLeg -4.012555 1.855667 2.750239
RightLeg -4.571771 -0.000000 0.000000
RightFoot -4.468421 -11.979670 8.763356
RightToeBase -1.983532 -0.000000 0.000000
47
root -0.981929 32.923291 -0.006150 9.757602 1.556304 -2.267225
Spine -12.439907 -6.407042 1.597237
Head 12.496168 -3.798293 -0.794984
LeftShoulder -20.023551 40.113033 21.344605
LeftArm 58.003301 -57.465964 -62.316887
LeftForeArm 4.910120 0.000000 -4.212564
LeftHand 4.486029 -0.000000 6.025835
LeftHandThumb1 -26.253704 0.000000 33.147579
RightShoulder -7.926816 2.996278 -31.787085
RightArm 12.783248 14.699020 39.963810
RightForeArm -10.963904 0.000000 0.150844
RightHand 2.310048 -0.000000 0.388491
RightHandThumb1 -24.326973 -0.000000 -32.862282
LeftUpLeg -4.857121 -5.201058 3.964909
LeftLeg -3.423000 -0.000000 0.000000
LeftFoot -5.173973 6.995702 -19.437890
LeftToeBase -5.990146 -0.000000 0.000000
RightUpLeg -4.023381 1.861052 2.760963
RightLeg -4.567414 -0.000000 0.000000
RightFoot -4.467431 -11.988731 8.761220
RightToeBase -2.003541 -0.000000 0.000000
48
root -0.981466 32.923260 -0.005134 9.767625 1.548702 -2.277156
Spine -12.463564 -6.400036 1.612055
Head 12.587198 -3.847956 -0.825284
LeftShoulder -20.001450 40.136867 21.337405
LeftArm 57.969389 -57.449696 -62.290177
LeftForeArm 4.866383 -0.000000 -4.173491
LeftHand 4.496004 -0.000000 6.027124
LeftHandThumb1 -26.253704 0.000000 33.147579
RightShoulder -7.928592 2.990831 -31.801338
RightArm 12.776119 14.693197 39.946066
RightForeArm -10.982431 -0.000000 0.155699
RightHand 2.296853 -0.000000 0.404570
RightHandThumb1 -24.326973 -0.000000 -32.862282
LeftUpLeg -4.860832 -5.207551 3.974923
LeftLeg -3.428941 -0.000000 0.000000
LeftFoot -5.173244 7.007635 -19.430322
LeftToeBase -6.029612 -0.000000 0.000000
RightUpLeg -4.028480 1.870968 2.767683
RightLeg -4.572317 -0.000000 0.000000
RightFoot -4.477867 -12.009565 8.710001
RightToeBase -1.901546 -0.000000 0.000000
49
root -0.982838 32.924004 -0.005441 9.780867 1.538508 -2.284636
Spine -12.467270 -6.393803 1.601866
Head 12.606234 -3.706454 -0.841625
LeftShoulder -20.014898 40.113454 21.340571
LeftArm 57.948707 -57.415753 -62.267576
LeftForeArm 4.921383 0.000000 -4.161095
LeftHand 4.504808 -0.000000 6.096496
LeftHandThumb1 -26.253704 0.000000 33.147579
RightShoulder -7.959430 2.969642 -31.773984
RightArm 12.801777 14.719895 39.925436
RightForeArm -11.001417 -0.000000 0.168664
RightHand 2.234517 -0.000000 0.570266
RightHandThumb1 -24.326973 -0.000000 -32.862282
LeftUpLeg -4.876550 -5.182514 3.984166
LeftLeg -3.422166 -0.000000 0.000000
LeftFoot -5.171331 6.982935 -19.448661
LeftToeBase -6.019057 -0.000000 0.000000
RightUpLeg -4.049274 1.867343 2.778113
RightLeg -4.558584 -0.000000 0.000000
RightFoot -4.483205 -12.012940 8.677846
RightToeBase -1.868740 -0.000000 0.000000
